# xmcd CD database file
#
# Track frame offsets:
#	183
#	11900
#	22665
#	39958
#	53398
#	63465
#	76375
#	97928
#	137068
#	153255
#	177005
#	191573
#	204613
#	220045
#	231608
#	242378
#	253698
#	268635
#	289085
#	297295
#	309600
#	320308
#	343100
#
# Disc length: 4720 seconds
#
# Revision: 0
# Processed by: cddbd v1.5.1PL2 Copyright (c) Steve Scherf et al.
# Submitted via: CDex 1.70beta1
#
DISCID=3e126e17
DTITLE=Fat Sams Band - The Best Of - Volume 1
DYEAR=1991
DGENRE=Jazz
TTITLE0=Jumpin' Jive
TTITLE1=Chartreuse
TTITLE2=Saturday Night Fish Fry
TTITLE3=Roll 'em
TTITLE4=Jumpin' With Symphony Sid
TTITLE5=Caldonia
TTITLE6=Moten Swing
TTITLE7=Miller Madness: Medley
TTITLE8=The Mouche
TTITLE9=Meet Me With Your Black Drawers On
TTITLE10=Drop Me Off In Harlem
TTITLE11=That Old Devil Called Love
TTITLE12=Sure Had A Wonderful Time
TTITLE13=Ring Dem Bells
TTITLE14=I Want A Roof Over My Head
TTITLE15=Oui C'est Samba
TTITLE16=I've Found A New Baby
TTITLE17=Mood Indigo
TTITLE18=Big 10 Inch
TTITLE19=Shape In A Drape
TTITLE20=Ain't Nobody Here But Us Chickens
TTITLE21=Is You Is Or Is You Ain't My Baby
TTITLE22=Choo-ChooCh-Boogie
EXTD=YEAR: 1991
EXTT0=
EXTT1=
EXTT2=
EXTT3=
EXTT4=
EXTT5=
EXTT6=
EXTT7=
EXTT8=
EXTT9=
EXTT10=
EXTT11=
EXTT12=
EXTT13=
EXTT14=
EXTT15=
EXTT16=
EXTT17=
EXTT18=
EXTT19=
EXTT20=
EXTT21=
EXTT22=
PLAYORDER=
